<mxfile host="app.diagrams.net" agent="Mozilla/5.0 (Macintosh; Intel Mac OS X 10_15_7) AppleWebKit/537.36 (KHTML, like Gecko) Chrome/131.0.0.0 Safari/537.36" version="24.9.1">
  <diagram name="Page-1" id="Page-1">
    <mxGraphModel dx="1026" dy="566" grid="1" gridSize="10" guides="1" tooltips="1" connect="1" arrows="1" fold="1" page="1" pageScale="1" pageWidth="827" pageHeight="1169" math="0" shadow="0">
      <root>
        <mxCell id="0" />
        <mxCell id="1" parent="0" />
        <UserObject label="&lt;div style=&quot;font-size: 1px&quot;&gt;&lt;p style=&quot;text-align:center;margin-left:0;margin-right:0;margin-top:0px;margin-bottom:0px;text-indent:0;vertical-align:middle;direction:ltr;&quot;&gt;&lt;font style=&quot;font-size:12px;font-family:0;color:#000000;direction:ltr;letter-spacing:0px;line-height:120%;opacity:1&quot;&gt;Client&lt;/font&gt;&lt;/p&gt;&lt;/div&gt;" tags="Background" id="2">
          <mxCell style="verticalAlign=middle;align=center;overflow=width;vsdxID=1;fillColor=none;gradientColor=none;shape=stencil(dU9JDoQwDHtNrigkgg+w/AOJQiugRaUzA7+nJQfQSNxsx04c4GrT3aqAcAveTepn+qCBayAyVitvQkTADXA1OK9G7z62F752yZnQ4r5pwy65AlOE8BBKWVleQivm2dh3c4749EZwX5GCz9l/oyjJN9yc);dashed=1;dashPattern=1.00 4.00;strokeColor=#000000;strokeWidth=2;spacingTop=-3;spacingBottom=-3;spacingLeft=-3;spacingRight=-3;points=[];labelBackgroundColor=none;rounded=0;html=1;whiteSpace=wrap;" parent="1" vertex="1">
            <mxGeometry x="325" y="96" width="158" height="1129" as="geometry" />
          </mxCell>
        </UserObject>
        <UserObject label="" tags="Background" id="3">
          <mxCell style="vsdxID=2;fillColor=#FFFFFF;gradientColor=none;shape=stencil(UzV2Ls5ILEhVNTIoLinKz04tz0wpyVA1dlE1MsrMy0gtyiwBslSNXVWNndPyi1LTi/JL81Ig/IJEkEoQKze/DGRCBUSfAUiHkUElMs8NojAnMw9JoaEB2UqN9MzMcKsmXy2KE4AMhB/TMnNyIEGELI8eJkAhSHgauwIA);strokeColor=#000000;strokeWidth=2;spacingTop=-3;spacingBottom=-3;spacingLeft=-3;spacingRight=-3;points=[];labelBackgroundColor=none;rounded=0;html=1;whiteSpace=wrap;" parent="1" vertex="1">
            <mxGeometry x="325" y="96" width="158" height="1129" as="geometry" />
          </mxCell>
        </UserObject>
        <UserObject label="&lt;div style=&quot;font-size: 1px&quot;&gt;&lt;p style=&quot;text-align:center;margin-left:0;margin-right:0;margin-top:0px;margin-bottom:0px;text-indent:0;vertical-align:middle;direction:ltr;&quot;&gt;&lt;font style=&quot;font-size:12px;font-family:0;color:#000000;direction:ltr;letter-spacing:0px;line-height:120%;opacity:1&quot;&gt;Cloudgame Server&lt;/font&gt;&lt;/p&gt;&lt;/div&gt;" tags="Background" id="4">
          <mxCell style="verticalAlign=middle;align=center;overflow=width;vsdxID=3;fillColor=none;gradientColor=none;shape=stencil(UzV2Ls5ILEhVNTIoLinKz04tz0wpyVA1dlE1MsrMy0gtyiwBslSNXVWNndPyi1LTi/JL81Ig/IJEkEoQKze/DGRCBUSfqQFIi5FBJYRrpGcO5rtB1OZk5uFWa2hggKwWyEBYAnEfshy6g4BCEM8YuwIA);dashed=1;dashPattern=1.00 4.00;strokeColor=#000000;strokeWidth=2;spacingTop=-3;spacingBottom=-3;spacingLeft=-3;spacingRight=-3;points=[];labelBackgroundColor=none;rounded=0;html=1;whiteSpace=wrap;" parent="1" vertex="1">
            <mxGeometry x="1041" y="90" width="199" height="1113" as="geometry" />
          </mxCell>
        </UserObject>
        <UserObject label="" tags="Background" id="5">
          <mxCell style="vsdxID=4;fillColor=#FFFFFF;gradientColor=none;shape=stencil(UzV2Ls5ILEhVNTIoLinKz04tz0wpyVA1dlE1MsrMy0gtyiwBslSNXVWNndPyi1LTi/JL81Ig/IJEkEoQKze/DGRCBUSfAUiHkUElMs8NojAnMw9JoaEB2UqN9MxxKyZbKYoDgAyED9Myc3IgAYQsjx4iQCFIaBq7AgA=);strokeColor=#000000;strokeWidth=2;spacingTop=-3;spacingBottom=-3;spacingLeft=-3;spacingRight=-3;points=[];labelBackgroundColor=none;rounded=0;html=1;whiteSpace=wrap;" parent="1" vertex="1">
            <mxGeometry x="1041" y="90" width="199" height="1113" as="geometry" />
          </mxCell>
        </UserObject>
        <UserObject label="&lt;div style=&quot;font-size: 1px&quot;&gt;&lt;p style=&quot;text-align:center;margin-left:0;margin-right:0;margin-top:0px;margin-bottom:0px;text-indent:0;vertical-align:middle;direction:ltr;&quot;&gt;&lt;font style=&quot;font-size:12px;font-family:0;color:#000000;direction:ltr;letter-spacing:0px;line-height:120%;opacity:1&quot;&gt;Room Server&lt;/font&gt;&lt;/p&gt;&lt;/div&gt;" tags="Background" id="6">
          <mxCell style="verticalAlign=middle;align=center;overflow=width;vsdxID=5;fillColor=none;gradientColor=none;shape=stencil(dU9JCoAwDHxNrhIbfIHLPwSrLWortW6/tyEHRRBymElmkglQuZp20aBwjcGP+rBdNEAVKGWd0cHGhIBqoLL3QQ/Bb64TvrSsZDT7nTec4iuQLQovoZQxS9WIeLLuX5wjvrUJPFck4Hv2TZRa8g3VNw==);dashed=1;dashPattern=1.00 4.00;strokeColor=#000000;strokeWidth=2;spacingTop=-3;spacingBottom=-3;spacingLeft=-3;spacingRight=-3;points=[];labelBackgroundColor=none;rounded=0;html=1;whiteSpace=wrap;" parent="1" vertex="1">
            <mxGeometry x="756" y="90" width="163" height="933" as="geometry" />
          </mxCell>
        </UserObject>
        <UserObject label="" tags="Background" id="7">
          <mxCell style="vsdxID=6;fillColor=#FFFFFF;gradientColor=none;shape=stencil(UzV2Ls5ILEhVNTIoLinKz04tz0wpyVA1dlE1MsrMy0gtyiwBslSNXVWNndPyi1LTi/JL81Ig/IJEkEoQKze/DGRCBUSfAUiHkUElMs8NojAnMw9JoaEB2UqN9UA8XKrJV4viBCAD4ce0zJwcSBAhy6OHCVAIEp7GrgA=);strokeColor=#000000;strokeWidth=2;spacingTop=-3;spacingBottom=-3;spacingLeft=-3;spacingRight=-3;points=[];labelBackgroundColor=none;rounded=0;html=1;whiteSpace=wrap;" parent="1" vertex="1">
            <mxGeometry x="756" y="90" width="163" height="933" as="geometry" />
          </mxCell>
        </UserObject>
        <UserObject label="" tags="Background" id="8">
          <mxCell style="vsdxID=7;fillColor=#FFFFFF;gradientColor=none;shape=stencil(rZNBDoIwEEVP06VNOyMga8R7EAFpRCAFFG4vOBioFcPC3fTz/p9mmDIM6iyqEgaibnR5TR4qbjKGRwagiizRqhkqhiHDIC11ctFlW8R0rqKRHKtbeR8TOvIhcsTRBaInRQJ3XsKJ+HOrySBtxyTt9lx6JHVAkutyd5J6sCm0KdzWfmmZJPCt9stLgk2hTa20N6flCGNUYKC5KtZRb3uq9yP1YP0tIf4S7Mt5rBuSzWBHrAe/Y76zQzFvZqrynBZ7+f1zkweJXgGGTw==);strokeColor=#000000;strokeWidth=2;spacingTop=-3;spacingBottom=-3;spacingLeft=-3;spacingRight=-3;points=[];labelBackgroundColor=none;rounded=0;html=1;whiteSpace=wrap;" parent="1" vertex="1">
            <mxGeometry x="146" y="256" width="70" height="100" as="geometry" />
          </mxCell>
        </UserObject>
        <UserObject label="" tags="Background" id="9">
          <mxCell style="vsdxID=8;fillColor=none;gradientColor=none;shape=stencil(nZBLDoAgDERP0z3SI/i5B4koRAWC+Lu9kMaIxpW7mfZNkw5gOSvhJHA2B28Huek2KMAKONdGSa9DVIA1YNlZL3tvF9OSdyKRSU12TRd2yrGU4OzIXUPgqE0GFuw3evlP+Df6AKO4P6Ry8t27jTiiJrE+AQ==);strokeColor=#000000;strokeWidth=2;spacingTop=-3;spacingBottom=-3;spacingLeft=-3;spacingRight=-3;points=[];labelBackgroundColor=none;rounded=0;html=1;whiteSpace=wrap;" parent="1" vertex="1">
            <mxGeometry x="146" y="256" width="70" height="100" as="geometry" />
          </mxCell>
        </UserObject>
        <UserObject label="" tags="Background" id="10">
          <mxCell style="vsdxID=9;fillColor=#FFFFFF;gradientColor=none;shape=stencil(lZLbDoIwDIafZrfL1iY4rxHfg4Qhi8hwguLbyxzCBgTDXQ9f97ddCcaPIq0lAfZojL7Kl8qaguCJAKiqkEY1vUUwIRjn2siL0W2VOb9OLWmtm37aFzpXx2wFsLfzOOXiGzg79t6mmWV5CIduB0MxUsSBAJ8YHitV5QmLiEaHQJxtKHP2R3vMw/okofiEO/8oqIA98mPg14A/zqyn9Q68Za3i26tf6M/GXwwUqm//+h62N6bTylVZusv08/NT7EPujDH5AA==);strokeColor=#000000;strokeWidth=2;spacingTop=-3;spacingBottom=-3;spacingLeft=-3;spacingRight=-3;points=[];labelBackgroundColor=none;rounded=0;html=1;whiteSpace=wrap;" parent="1" vertex="1">
            <mxGeometry x="385" y="555" width="30" height="338" as="geometry" />
          </mxCell>
        </UserObject>
        <UserObject label="" tags="Background" id="11">
          <mxCell style="vsdxID=10;fillColor=#FFFFFF;gradientColor=none;shape=stencil(lZLdDoMgDIWfhluCbaLu2rn3MBEnmROHP3NvPxlOgRkX73rKVw4tJZi0ZdZwAqztlLzxp8i7kuCZAIi65Ep0U0QwJZgUUvGrkn2dG91kmtTRXQ76htHUMV0B7GVUQKOPvhj00We5RgOXdeUIcy1SxJkAm5gvq0Rt+cYhDSPHm+04B+yP93IOm4243itt9CmmeMR8SXzt7Wa8F20/wBrVJr4/+B9/r3m/H9d898cPoFOwLlUhqsrspH3uL+GUMguM6Rs=);strokeColor=#000000;strokeWidth=2;spacingTop=-3;spacingBottom=-3;spacingLeft=-3;spacingRight=-3;points=[];labelBackgroundColor=none;rounded=0;html=1;whiteSpace=wrap;" parent="1" vertex="1">
            <mxGeometry x="822" y="193" width="30" height="235" as="geometry" />
          </mxCell>
        </UserObject>
        <UserObject label="" tags="Background" id="12">
          <mxCell style="vsdxID=11;fillColor=#FFFFFF;gradientColor=none;shape=stencil(lZLbDoIwDIafZrfL1hrEa8T3IGHIIjIcoPj2MoewAcFw18PX/W1XglGdJ5UgwOpGq5t4ybTJCZ4JgCxzoWXTWwRjglGmtLhq1Zap9avEkMa6q6d5obN1zFQAe1uPU374Bi6WfbRJaljuw77bwVCMFHEgwCWGxwpZOsJhQIOjJ842lDn7oz3mYX0SX3zCrX8KaRjskR8DvwbccWY9rXfgLGsV3179Qn82/mIgX3371/ewvTGdViaLwl6mm5+fYh+yZ4zxBw==);strokeColor=#000000;strokeWidth=2;spacingTop=-3;spacingBottom=-3;spacingLeft=-3;spacingRight=-3;points=[];labelBackgroundColor=none;rounded=0;html=1;whiteSpace=wrap;" parent="1" vertex="1">
            <mxGeometry x="1125" y="490" width="30" height="351" as="geometry" />
          </mxCell>
        </UserObject>
        <UserObject label="&lt;div style=&quot;font-size: 1px&quot;&gt;&lt;p style=&quot;text-align:center;margin-left:0;margin-right:0;margin-top:0px;margin-bottom:0px;text-indent:0;vertical-align:middle;direction:ltr;&quot;&gt;&lt;font style=&quot;font-size:12px;font-family:0;color:#000000;direction:ltr;letter-spacing:0px;line-height:120%;opacity:1&quot;&gt;ICE Server&lt;/font&gt;&lt;/p&gt;&lt;/div&gt;" tags="Background" id="13">
          <mxCell style="verticalAlign=middle;align=center;overflow=width;vsdxID=12;fillColor=none;gradientColor=none;shape=stencil(dU9LDkIhDDxNt6a2ceEa8R4kD4WoQID38faCXUhe4m5mOtNOgVVxJlkgLDXHh139VB3wBYh8cDb72hCwBla3mO09xzlMwpPpzo5ecekbNsmdsEcI30LpcKavcBXz04f/5iPi6G3gd0UKjrN9oybJN6w/);dashed=1;dashPattern=1.00 4.00;strokeColor=#000000;strokeWidth=2;spacingTop=-3;spacingBottom=-3;spacingLeft=-3;spacingRight=-3;points=[];labelBackgroundColor=none;rounded=0;html=1;whiteSpace=wrap;" parent="1" vertex="1">
            <mxGeometry x="512" y="96" width="181" height="1029" as="geometry" />
          </mxCell>
        </UserObject>
        <UserObject label="" tags="Background" id="14">
          <mxCell style="vsdxID=13;fillColor=#FFFFFF;gradientColor=none;shape=stencil(UzV2Ls5ILEhVNTIoLinKz04tz0wpyVA1dlE1MsrMy0gtyiwBslSNXVWNndPyi1LTi/JL81Ig/IJEkEoQKze/DGRCBUSfAUiHkUElMs8NojAnMw9JoaEB2UqN9CyNcKsmXy2KE4AMhB/TMnNyIEGELI8eJkAhSHgauwIA);strokeColor=#000000;strokeWidth=2;spacingTop=-3;spacingBottom=-3;spacingLeft=-3;spacingRight=-3;points=[];labelBackgroundColor=none;rounded=0;html=1;whiteSpace=wrap;" parent="1" vertex="1">
            <mxGeometry x="512" y="96" width="181" height="1029" as="geometry" />
          </mxCell>
        </UserObject>
        <UserObject label="&lt;div style=&quot;font-size: 1px&quot;&gt;&lt;p style=&quot;text-align:center;margin-left:0;margin-right:0;margin-top:0px;margin-bottom:0px;text-indent:0;vertical-align:middle;direction:ltr;&quot;&gt;&lt;font style=&quot;font-size:12px;font-family:0;color:#000000;direction:ltr;letter-spacing:0px;line-height:120%;opacity:1&quot;&gt;获取本地音视频配置&lt;/font&gt;&lt;/p&gt;&lt;/div&gt;" tags="Background" id="15">
          <mxCell style="verticalAlign=middle;align=center;overflow=width;vsdxID=14;fillColor=none;gradientColor=none;shape=stencil(nZBLDoAgDERP0z3SI/i5B4koRAWC+Lu9kMaIxpW7mfZNkw5gOSvhJHA2B28Huek2KMAKONdGSa9DVIA1YNlZL3tvF9OSdyKRSU12TRd2yrGU4OzIXUPgqE0GFuw3evlP+Df6AKO4P6Ry8t27jTiiJrE+AQ==);strokeColor=#000000;strokeWidth=2;spacingTop=-3;spacingBottom=-3;spacingLeft=-3;spacingRight=-3;points=[];labelBackgroundColor=none;rounded=0;html=1;whiteSpace=wrap;" parent="1" vertex="1">
            <mxGeometry x="1234" y="615" width="120" height="40" as="geometry" />
          </mxCell>
        </UserObject>
        <UserObject label="&lt;div style=&quot;font-size: 1px&quot;&gt;&lt;p style=&quot;text-align:center;margin-left:0;margin-right:0;margin-top:0px;margin-bottom:0px;text-indent:0;vertical-align:middle;direction:ltr;&quot;&gt;&lt;font style=&quot;font-size:12px;font-family:0;color:#000000;direction:ltr;letter-spacing:0px;line-height:120%;opacity:1&quot;&gt;打开新游戏窗口&lt;br/&gt;&lt;/font&gt;&lt;font style=&quot;font-size:12px;font-family:0;color:#000000;direction:ltr;letter-spacing:0px;line-height:120%;opacity:1&quot;&gt;设置窗口位置，大小&lt;br/&gt;&lt;/font&gt;&lt;font style=&quot;font-size:12px;font-family:0;color:#000000;direction:ltr;letter-spacing:0px;line-height:120%;opacity:1&quot;&gt;通过getdisplaymedia捕获窗口&lt;/font&gt;&lt;/p&gt;&lt;/div&gt;" tags="Background" id="16">
          <mxCell style="verticalAlign=middle;align=center;overflow=width;vsdxID=15;fillColor=none;gradientColor=none;shape=stencil(nZBLDoAgDERP0z3SI/i5B4koRAWC+Lu9kMaIxpW7mfZNkw5gOSvhJHA2B28Huek2KMAKONdGSa9DVIA1YNlZL3tvF9OSdyKRSU12TRd2yrGU4OzIXUPgqE0GFuw3evlP+Df6AKO4P6Ry8t27jTiiJrE+AQ==);strokeColor=#000000;strokeWidth=2;spacingTop=-3;spacingBottom=-3;spacingLeft=-3;spacingRight=-3;points=[];labelBackgroundColor=none;rounded=0;html=1;whiteSpace=wrap;" parent="1" vertex="1">
            <mxGeometry x="1217" y="432" width="183" height="69" as="geometry" />
          </mxCell>
        </UserObject>
        <UserObject label="&lt;div style=&quot;font-size: 1px&quot;&gt;&lt;p style=&quot;text-align:center;margin-left:0;margin-right:0;margin-top:0px;margin-bottom:0px;text-indent:0;vertical-align:middle;direction:ltr;&quot;&gt;&lt;font style=&quot;font-size:12px;font-family:0;color:#000000;direction:ltr;letter-spacing:0px;line-height:120%;opacity:1&quot;&gt;转发offer&lt;/font&gt;&lt;/p&gt;&lt;/div&gt;" tags="Background" id="17">
          <mxCell style="verticalAlign=middle;align=center;overflow=width;vsdxID=16;fillColor=none;gradientColor=none;shape=stencil(nZBLDoAgDERP0z3SI/i5B4koRAWC+Lu9kMaIxpW7mfZNkw5gOSvhJHA2B28Huek2KMAKONdGSa9DVIA1YNlZL3tvF9OSdyKRSU12TRd2yrGU4OzIXUPgqE0GFuw3evlP+Df6AKO4P6Ry8t27jTiiJrE+AQ==);strokeColor=#000000;strokeWidth=2;spacingTop=-3;spacingBottom=-3;spacingLeft=-3;spacingRight=-3;points=[];labelBackgroundColor=none;rounded=0;html=1;whiteSpace=wrap;" parent="1" vertex="1">
            <mxGeometry x="816" y="519" width="120" height="40" as="geometry" />
          </mxCell>
        </UserObject>
        <UserObject label="&lt;div style=&quot;font-size: 1px&quot;&gt;&lt;p style=&quot;text-align:center;margin-left:0;margin-right:0;margin-top:0px;margin-bottom:0px;text-indent:0;vertical-align:middle;direction:ltr;&quot;&gt;&lt;font style=&quot;font-size:12px;font-family:0;color:#000000;direction:ltr;letter-spacing:0px;line-height:120%;opacity:1&quot;&gt;创建datachannel 用户传输操作信息&lt;/font&gt;&lt;/p&gt;&lt;/div&gt;" tags="Background" id="18">
          <mxCell style="verticalAlign=middle;align=center;overflow=width;vsdxID=17;fillColor=none;gradientColor=none;shape=stencil(nZBLDoAgDERP0z3SI/i5B4koRAWC+Lu9kMaIxpW7mfZNkw5gOSvhJHA2B28Huek2KMAKONdGSa9DVIA1YNlZL3tvF9OSdyKRSU12TRd2yrGU4OzIXUPgqE0GFuw3evlP+Df6AKO4P6Ry8t27jTiiJrE+AQ==);strokeColor=#000000;strokeWidth=2;spacingTop=-3;spacingBottom=-3;spacingLeft=-3;spacingRight=-3;points=[];labelBackgroundColor=none;rounded=0;html=1;whiteSpace=wrap;" parent="1" vertex="1">
            <mxGeometry x="1294" y="683" width="120" height="40" as="geometry" />
          </mxCell>
        </UserObject>
        <UserObject label="" tags="Background" id="19">
          <mxCell style="vsdxID=18;fillColor=#FFFFFF;gradientColor=none;shape=stencil(lZLREoIgEEW/hlcHdxurZ7P/YEZMJhNDLfv7pDUFc6ze9sKB4+IyjOtcVJIBrxujz/Ku0iZneGAAqsylUU1fMUwYxpk28mR0W6aUK2FJW130zd7Q0TluTwB/UNq80pHAaytSC4Y+6ccOKIYYIA4EuMRwWaFKx7qLgmjrmfmKOeRf3OM+LLThmyeW8j76RzwuvNVuI7OvWdY7z7SIrz/6h3/WuN+Nr1750z+DfTENUqaKgubQ3Z8PXr9EQ4vJEw==);strokeColor=#000000;strokeWidth=2;spacingTop=-3;spacingBottom=-3;spacingLeft=-3;spacingRight=-3;points=[];labelBackgroundColor=none;rounded=0;html=1;whiteSpace=wrap;" parent="1" vertex="1">
            <mxGeometry x="1125" y="921" width="30" height="100" as="geometry" />
          </mxCell>
        </UserObject>
        <UserObject label="" tags="Background" id="20">
          <mxCell style="vsdxID=19;fillColor=#FFFFFF;gradientColor=none;shape=stencil(lZLREoIgEEW/hlcHdxurZ7P/YEZMJhNDLfv7pDUFc6ze9sKB4+IyjOtcVJIBrxujz/Ku0iZneGAAqsylUU1fMUwYxpk28mR0W6aUK2FJW130zd7Q0TluTwB/UNq80pHAaytSC4Y+6ccOKIYYIA4EuMRwWaFKx7qLgmjrmfmKOeRf3OM+LLThmyeW8j76RzwuvNVuI7OvWdY7z7SIrz/6h3/WuN+Nr1750z+DfTENUqaKgubQ3Z8PXr9EQ4vJEw==);strokeColor=#000000;strokeWidth=2;spacingTop=-3;spacingBottom=-3;spacingLeft=-3;spacingRight=-3;points=[];labelBackgroundColor=none;rounded=0;html=1;whiteSpace=wrap;" parent="1" vertex="1">
            <mxGeometry x="389" y="927" width="30" height="100" as="geometry" />
          </mxCell>
        </UserObject>
        <UserObject label="&lt;div style=&quot;font-size: 1px&quot;&gt;&lt;p style=&quot;text-align:center;margin-left:0;margin-right:0;margin-top:0px;margin-bottom:0px;text-indent:0;vertical-align:middle;direction:ltr;&quot;&gt;&lt;font style=&quot;font-size:12px;font-family:0;color:#000000;direction:ltr;letter-spacing:0px;line-height:120%;opacity:1&quot;&gt;video &amp;amp;&amp;amp; audio&lt;/font&gt;&lt;/p&gt;&lt;/div&gt;" tags="Background" id="21">
          <mxCell style="verticalAlign=middle;align=center;overflow=width;vsdxID=20;fillColor=none;gradientColor=none;shape=stencil(nZBLDoAgDERP0z3SI/i5B4koRAWC+Lu9kMaIxpW7mfZNkw5gOSvhJHA2B28Huek2KMAKONdGSa9DVIA1YNlZL3tvF9OSdyKRSU12TRd2yrGU4OzIXUPgqE0GFuw3evlP+Df6AKO4P6Ry8t27jTiiJrE+AQ==);strokeColor=#000000;strokeWidth=2;spacingTop=-3;spacingBottom=-3;spacingLeft=-3;spacingRight=-3;points=[];labelBackgroundColor=none;rounded=0;html=1;whiteSpace=wrap;" parent="1" vertex="1">
            <mxGeometry x="197" y="939" width="160" height="40" as="geometry" />
          </mxCell>
        </UserObject>
        <UserObject label="&lt;div style=&quot;font-size: 1px&quot;&gt;&lt;p style=&quot;text-align:center;margin-left:0;margin-right:0;margin-top:0px;margin-bottom:0px;text-indent:0;vertical-align:middle;direction:ltr;&quot;&gt;&lt;font style=&quot;font-size:12px;font-family:0;color:#000000;direction:ltr;letter-spacing:0px;line-height:120%;opacity:1&quot;&gt;获取本地候选IP&lt;br/&gt;&lt;/font&gt;&lt;font style=&quot;font-size:12px;font-family:0;color:#000000;direction:ltr;letter-spacing:0px;line-height:120%;opacity:1&quot;&gt;设置编解码信息&lt;/font&gt;&lt;/p&gt;&lt;/div&gt;" tags="Background" id="22">
          <mxCell style="verticalAlign=middle;align=center;overflow=width;vsdxID=21;fillColor=none;gradientColor=none;shape=stencil(nZBLDoAgDERP0z3SI/i5B4koRAWC+Lu9kMaIxpW7mfZNkw5gOSvhJHA2B28Huek2KMAKONdGSa9DVIA1YNlZL3tvF9OSdyKRSU12TRd2yrGU4OzIXUPgqE0GFuw3evlP+Df6AKO4P6Ry8t27jTiiJrE+AQ==);strokeColor=#000000;strokeWidth=2;spacingTop=-3;spacingBottom=-3;spacingLeft=-3;spacingRight=-3;points=[];labelBackgroundColor=none;rounded=0;html=1;whiteSpace=wrap;" parent="1" vertex="1">
            <mxGeometry x="1280" y="753" width="120" height="40" as="geometry" />
          </mxCell>
        </UserObject>
        <UserObject label="" tags="Background" id="23">
          <mxCell style="vsdxID=22;fillColor=#FFFFFF;gradientColor=none;shape=stencil(lZLdEoIgEIWfhlsG2cbs2uw9nBGTycTwJ3v7pDUFcmy827N8y2GXJRA3RVoLwlnTanUTT5m1BYEz4VxWhdCyHSMCCYE4V1pcteqqDHWdGtJEd9WbGwasY6aCsxeqgIYffUH00aWZQQOXdeXAp1qgABPBbWK6rJSV5RuFNDw63mzDOWB/vOdzvtqI673QqE8RPewxnxNfe7sZ70XrD7BGtYpvD/7H32ve78c13/zxHegYLEuVy7LEnbTP/SUcU7jAkLwB);strokeColor=#000000;strokeWidth=2;spacingTop=-3;spacingBottom=-3;spacingLeft=-3;spacingRight=-3;points=[];labelBackgroundColor=none;rounded=0;html=1;whiteSpace=wrap;" parent="1" vertex="1">
            <mxGeometry x="1125" y="188" width="30" height="250" as="geometry" />
          </mxCell>
        </UserObject>
        <UserObject label="" tags="Background" id="24">
          <mxCell style="vsdxID=23;fillColor=#FFFFFF;gradientColor=none;shape=stencil(lZLREoIgEEW/hlcHdxurZ7P/YEZMJhNDLfv7pDUFc6ze9sKB4+IyjOtcVJIBrxujz/Ku0iZneGAAqsylUU1fMUwYxpk28mR0W6aUK2FJW130zd7Q0TluTwB/UNq80pHAaytSC4Y+6ccOKIYYIA4EuMRwWaFKx7qLgmjrmfmKOeRf3OM+LLThmyeW8j76RzwuvNVuI7OvWdY7z7SIrz/6h3/WuN+Nr1750z+DfTENUqaKgubQ3Z8PXr9EQ4vJEw==);strokeColor=#000000;strokeWidth=2;spacingTop=-3;spacingBottom=-3;spacingLeft=-3;spacingRight=-3;points=[];labelBackgroundColor=none;rounded=0;html=1;whiteSpace=wrap;" parent="1" vertex="1">
            <mxGeometry x="389" y="180" width="30" height="100" as="geometry" />
          </mxCell>
        </UserObject>
        <UserObject label="" tags="Background" id="25">
          <mxCell style="vsdxID=24;fillColor=#FFFFFF;gradientColor=none;shape=stencil(lZLREoIgEEW/hlcHdxurZ7P/YEZMJhNDLfv7pDUFc6ze9sKB4+IyjOtcVJIBrxujz/Ku0iZneGAAqsylUU1fMUwYxpk28mR0W6aUK2FJW130zd7Q0TluTwB/UNq80pHAaytSC4Y+6ccOKIYYIA4EuMRwWaFKx7qLgmjrmfmKOeRf3OM+LLThmyeW8j76RzwuvNVuI7OvWdY7z7SIrz/6h3/WuN+Nr1750z+DfTENUqaKgubQ3Z8PXr9EQ4vJEw==);strokeColor=#000000;strokeWidth=2;spacingTop=-3;spacingBottom=-3;spacingLeft=-3;spacingRight=-3;points=[];labelBackgroundColor=none;rounded=0;html=1;whiteSpace=wrap;" parent="1" vertex="1">
            <mxGeometry x="822" y="559" width="30" height="100" as="geometry" />
          </mxCell>
        </UserObject>
        <UserObject label="" tags="Background" id="26">
          <mxCell style="vsdxID=25;fillColor=#FFFFFF;gradientColor=none;shape=stencil(lZLREoIgEEW/hlcHdxurZ7P/YEZMJhNDLfv7pDUFc6ze9sKB4+IyjOtcVJIBrxujz/Ku0iZneGAAqsylUU1fMUwYxpk28mR0W6aUK2FJW130zd7Q0TluTwB/UNq80pHAaytSC4Y+6ccOKIYYIA4EuMRwWaFKx7qLgmjrmfmKOeRf3OM+LLThmyeW8j76RzwuvNVuI7OvWdY7z7SIrz/6h3/WuN+Nr1750z+DfTENUqaKgubQ3Z8PXr9EQ4vJEw==);strokeColor=#000000;strokeWidth=2;spacingTop=-3;spacingBottom=-3;spacingLeft=-3;spacingRight=-3;points=[];labelBackgroundColor=none;rounded=0;html=1;whiteSpace=wrap;" parent="1" vertex="1">
            <mxGeometry x="587" y="711" width="30" height="100" as="geometry" />
          </mxCell>
        </UserObject>
        <UserObject label="&lt;div style=&quot;font-size: 1px&quot;&gt;&lt;p style=&quot;text-align:center;margin-left:0;margin-right:0;margin-top:0px;margin-bottom:0px;text-indent:0;vertical-align:middle;direction:ltr;&quot;&gt;&lt;font style=&quot;font-size:12px;font-family:0;color:#000000;direction:ltr;letter-spacing:0px;line-height:120%;opacity:1&quot;&gt;gameid/authcookie&lt;/font&gt;&lt;/p&gt;&lt;/div&gt;" tags="Background" id="27">
          <mxCell style="verticalAlign=middle;align=center;overflow=width;vsdxID=26;fillColor=none;gradientColor=none;shape=stencil(nZBLDoAgDERP0z3SI/i5B4koRAWC+Lu9kMaIxpW7mfZNkw5gOSvhJHA2B28Huek2KMAKONdGSa9DVIA1YNlZL3tvF9OSdyKRSU12TRd2yrGU4OzIXUPgqE0GFuw3evlP+Df6AKO4P6Ry8t27jTiiJrE+AQ==);strokeColor=#000000;strokeWidth=2;spacingTop=-3;spacingBottom=-3;spacingLeft=-3;spacingRight=-3;points=[];labelBackgroundColor=none;rounded=0;html=1;whiteSpace=wrap;" parent="1" vertex="1">
            <mxGeometry x="926" y="395" width="160" height="40" as="geometry" />
          </mxCell>
        </UserObject>
        <UserObject label="&lt;div style=&quot;font-size: 1px&quot;&gt;&lt;p style=&quot;text-align:center;margin-left:0;margin-right:0;margin-top:0px;margin-bottom:0px;text-indent:0;vertical-align:middle;direction:ltr;&quot;&gt;&lt;font style=&quot;font-size:12px;font-family:0;color:#000000;direction:ltr;letter-spacing:0px;line-height:120%;opacity:1&quot;&gt;localstream = gamewindow&lt;/font&gt;&lt;/p&gt;&lt;/div&gt;" tags="Background" id="28">
          <mxCell style="verticalAlign=middle;align=center;overflow=width;vsdxID=27;fillColor=none;gradientColor=none;shape=stencil(nZBLDoAgDERP0z3SI/i5B4koRAWC+Lu9kMaIxpW7mfZNkw5gOSvhJHA2B28Huek2KMAKONdGSa9DVIA1YNlZL3tvF9OSdyKRSU12TRd2yrGU4OzIXUPgqE0GFuw3evlP+Df6AKO4P6Ry8t27jTiiJrE+AQ==);strokeColor=#000000;strokeWidth=2;spacingTop=-3;spacingBottom=-3;spacingLeft=-3;spacingRight=-3;points=[];labelBackgroundColor=none;rounded=0;html=1;whiteSpace=wrap;" parent="1" vertex="1">
            <mxGeometry x="1224" y="509" width="219" height="27" as="geometry" />
          </mxCell>
        </UserObject>
        <UserObject label="" tags="Background" id="29">
          <mxCell style="vsdxID=28;fillColor=#FFFFFF;gradientColor=none;shape=stencil(lZLREoIgEEW/hlcHdxurZ7P/YEZMJhNDLfv7pDUFc6ze9sKB4+IyjOtcVJIBrxujz/Ku0iZneGAAqsylUU1fMUwYxpk28mR0W6aUK2FJW130zd7Q0TluTwB/UNq80pHAaytSC4Y+6ccOKIYYIA4EuMRwWaFKx7qLgmjrmfmKOeRf3OM+LLThmyeW8j76RzwuvNVuI7OvWdY7z7SIrz/6h3/WuN+Nr1750z+DfTENUqaKgubQ3Z8PXr9EQ4vJEw==);strokeColor=#000000;strokeWidth=2;spacingTop=-3;spacingBottom=-3;spacingLeft=-3;spacingRight=-3;points=[];labelBackgroundColor=none;rounded=0;html=1;whiteSpace=wrap;" parent="1" vertex="1">
            <mxGeometry x="389" y="1046" width="30" height="100" as="geometry" />
          </mxCell>
        </UserObject>
        <UserObject label="" tags="Background" id="30">
          <mxCell style="vsdxID=29;fillColor=#FFFFFF;gradientColor=none;shape=stencil(lZLREoIgEEW/hlcHdxurZ7P/YEZMJhNDLfv7pDUFc6ze9sKB4+IyjOtcVJIBrxujz/Ku0iZneGAAqsylUU1fMUwYxpk28mR0W6aUK2FJW130zd7Q0TluTwB/UNq80pHAaytSC4Y+6ccOKIYYIA4EuMRwWaFKx7qLgmjrmfmKOeRf3OM+LLThmyeW8j76RzwuvNVuI7OvWdY7z7SIrz/6h3/WuN+Nr1750z+DfTENUqaKgubQ3Z8PXr9EQ4vJEw==);strokeColor=#000000;strokeWidth=2;spacingTop=-3;spacingBottom=-3;spacingLeft=-3;spacingRight=-3;points=[];labelBackgroundColor=none;rounded=0;html=1;whiteSpace=wrap;" parent="1" vertex="1">
            <mxGeometry x="1125" y="1056" width="30" height="100" as="geometry" />
          </mxCell>
        </UserObject>
        <UserObject label="&lt;div style=&quot;font-size: 1px&quot;&gt;&lt;p style=&quot;text-align:center;margin-left:0;margin-right:0;margin-top:0px;margin-bottom:0px;text-indent:0;vertical-align:middle;direction:ltr;&quot;&gt;&lt;font style=&quot;font-size:12px;font-family:0;color:#000000;direction:ltr;letter-spacing:0px;line-height:120%;opacity:1&quot;&gt;control input&lt;/font&gt;&lt;/p&gt;&lt;/div&gt;" tags="Background" id="31">
          <mxCell style="verticalAlign=middle;align=center;overflow=width;vsdxID=30;fillColor=none;gradientColor=none;shape=stencil(nZBLDoAgDERP0z3SI/i5B4koRAWC+Lu9kMaIxpW7mfZNkw5gOSvhJHA2B28Huek2KMAKONdGSa9DVIA1YNlZL3tvF9OSdyKRSU12TRd2yrGU4OzIXUPgqE0GFuw3evlP+Df6AKO4P6Ry8t27jTiiJrE+AQ==);strokeColor=#000000;strokeWidth=2;spacingTop=-3;spacingBottom=-3;spacingLeft=-3;spacingRight=-3;points=[];labelBackgroundColor=none;rounded=0;html=1;whiteSpace=wrap;" parent="1" vertex="1">
            <mxGeometry x="197" y="1068" width="160" height="40" as="geometry" />
          </mxCell>
        </UserObject>
        <UserObject label="&lt;div style=&quot;font-size: 1px&quot;&gt;&lt;p style=&quot;text-align:center;margin-left:0;margin-right:0;margin-top:0px;margin-bottom:0px;text-indent:0;vertical-align:middle;direction:ltr;&quot;&gt;&lt;font style=&quot;font-size:12px;font-family:0;color:#000000;direction:ltr;letter-spacing:0px;line-height:120%;opacity:1&quot;&gt;simulate mouse &amp;amp;&amp;amp; keyboard&lt;/font&gt;&lt;/p&gt;&lt;/div&gt;" tags="Background" id="32">
          <mxCell style="verticalAlign=middle;align=center;overflow=width;vsdxID=31;fillColor=none;gradientColor=none;shape=stencil(nZBLDoAgDERP0z3SI/i5B4koRAWC+Lu9kMaIxpW7mfZNkw5gOSvhJHA2B28Huek2KMAKONdGSa9DVIA1YNlZL3tvF9OSdyKRSU12TRd2yrGU4OzIXUPgqE0GFuw3evlP+Df6AKO4P6Ry8t27jTiiJrE+AQ==);strokeColor=#000000;strokeWidth=2;spacingTop=-3;spacingBottom=-3;spacingLeft=-3;spacingRight=-3;points=[];labelBackgroundColor=none;rounded=0;html=1;whiteSpace=wrap;" parent="1" vertex="1">
            <mxGeometry x="1209" y="1091" width="160" height="40" as="geometry" />
          </mxCell>
        </UserObject>
        <UserObject label="&lt;div style=&quot;font-size: 1px&quot;&gt;&lt;p style=&quot;text-align:center;margin-left:0;margin-right:0;margin-top:0px;margin-bottom:0px;text-indent:0;vertical-align:middle;direction:ltr;&quot;&gt;&lt;font style=&quot;font-size:12px;font-family:0;color:#000000;direction:ltr;letter-spacing:0px;line-height:120%;opacity:1&quot;&gt;RTCPeerConnection( ICE SERVER )&lt;/font&gt;&lt;/p&gt;&lt;/div&gt;" tags="Background" id="33">
          <mxCell style="vsdxID=32;edgeStyle=none;startArrow=none;endArrow=open;startSize=5;endSize=5;strokeWidth=2;spacingTop=0;spacingBottom=0;spacingLeft=0;spacingRight=0;verticalAlign=middle;html=1;labelBackgroundColor=#ffffff;rounded=0;align=center;exitX=1;exitY=0.20797720797720798;exitDx=0;exitDy=0;exitPerimeter=0;entryX=1;entryY=0.30484330484330485;entryDx=0;entryDy=0;entryPerimeter=0;" parent="1" source="12" target="12" edge="1">
            <mxGeometry relative="1" as="geometry">
              <mxPoint as="offset" />
              <Array as="points">
                <mxPoint x="1185" y="563" />
                <mxPoint x="1185" y="597" />
              </Array>
            </mxGeometry>
          </mxCell>
        </UserObject>
        <UserObject label="&lt;div style=&quot;font-size: 1px&quot;&gt;&lt;p style=&quot;text-align:center;margin-left:0;margin-right:0;margin-top:0px;margin-bottom:0px;text-indent:0;vertical-align:middle;direction:ltr;&quot;&gt;&lt;font style=&quot;font-size:12px;font-family:0;color:#000000;direction:ltr;letter-spacing:0px;line-height:120%;opacity:1&quot;&gt;RTCPeerConnection( ICE SERVER )&lt;/font&gt;&lt;/p&gt;&lt;/div&gt;" tags="Background" id="34">
          <mxCell style="vsdxID=33;edgeStyle=none;startArrow=none;endArrow=block;startSize=5;endSize=5;strokeWidth=2;spacingTop=0;spacingBottom=0;spacingLeft=0;spacingRight=0;verticalAlign=middle;html=1;labelBackgroundColor=#ffffff;rounded=0;align=center;exitX=1;exitY=0.4985754985754986;exitDx=0;exitDy=0;exitPerimeter=0;entryX=1;entryY=0.6125356125356125;entryDx=0;entryDy=0;entryPerimeter=0;" parent="1" source="12" target="12" edge="1">
            <mxGeometry relative="1" as="geometry">
              <mxPoint x="-1" y="-3" as="offset" />
              <Array as="points">
                <mxPoint x="1185" y="665" />
                <mxPoint x="1184.5" y="704.5" />
              </Array>
            </mxGeometry>
          </mxCell>
        </UserObject>
        <UserObject label="&lt;div style=&quot;font-size: 1px&quot;&gt;&lt;p style=&quot;text-align:center;margin-left:0;margin-right:0;margin-top:0px;margin-bottom:0px;text-indent:0;vertical-align:middle;direction:ltr;&quot;&gt;&lt;font style=&quot;font-size:12px;font-family:0;color:#000000;direction:ltr;letter-spacing:0px;line-height:120%;opacity:1&quot;&gt;Check sever available&lt;/font&gt;&lt;/p&gt;&lt;/div&gt;" tags="Background" id="35">
          <mxCell style="vsdxID=34;edgeStyle=none;startArrow=none;endArrow=block;startSize=5;endSize=5;strokeWidth=2;spacingTop=0;spacingBottom=0;spacingLeft=0;spacingRight=0;verticalAlign=middle;html=1;labelBackgroundColor=#ffffff;rounded=0;align=center;exitX=1;exitY=0.4978723404255319;exitDx=0;exitDy=0;exitPerimeter=0;entryX=1;entryY=0.6510638297872341;entryDx=0;entryDy=0;entryPerimeter=0;" parent="1" source="11" target="11" edge="1">
            <mxGeometry relative="1" as="geometry">
              <mxPoint x="-1" y="-1" as="offset" />
              <Array as="points">
                <mxPoint x="882" y="310" />
                <mxPoint x="881.5" y="345.5" />
              </Array>
            </mxGeometry>
          </mxCell>
        </UserObject>
        <UserObject label="&lt;div style=&quot;font-size: 1px&quot;&gt;&lt;p style=&quot;text-align:center;margin-left:0;margin-right:0;margin-top:0px;margin-bottom:0px;text-indent:0;vertical-align:middle;direction:ltr;&quot;&gt;&lt;font style=&quot;font-size:12px;font-family:0;color:#000000;direction:ltr;letter-spacing:0px;line-height:120%;opacity:1&quot;&gt;set remote description/ create answer&lt;/font&gt;&lt;/p&gt;&lt;/div&gt;" tags="Background" id="36">
          <mxCell style="vsdxID=35;edgeStyle=none;startArrow=none;endArrow=open;startSize=5;endSize=5;strokeWidth=2;spacingTop=0;spacingBottom=0;spacingLeft=0;spacingRight=0;verticalAlign=middle;html=1;labelBackgroundColor=#ffffff;rounded=0;align=center;exitX=1;exitY=0.6524216524216524;exitDx=0;exitDy=0;exitPerimeter=0;entryX=1;entryY=0.7378917378917379;entryDx=0;entryDy=0;entryPerimeter=0;" parent="1" source="12" target="12" edge="1">
            <mxGeometry relative="1" as="geometry">
              <mxPoint as="offset" />
              <Array as="points">
                <mxPoint x="1185" y="719" />
                <mxPoint x="1185" y="749" />
              </Array>
            </mxGeometry>
          </mxCell>
        </UserObject>
        <UserObject label="&lt;div style=&quot;font-size: 1px&quot;&gt;&lt;p style=&quot;text-align:center;margin-left:0;margin-right:0;margin-top:0px;margin-bottom:0px;text-indent:0;vertical-align:middle;direction:ltr;&quot;&gt;&lt;font style=&quot;font-size:12px;font-family:0;color:#000000;direction:ltr;letter-spacing:0px;line-height:120%;opacity:1&quot;&gt;save sdp&lt;/font&gt;&lt;/p&gt;&lt;/div&gt;" tags="Background" id="37">
          <mxCell style="vsdxID=36;edgeStyle=none;startArrow=none;endArrow=block;startSize=5;endSize=5;strokeWidth=2;spacingTop=0;spacingBottom=0;spacingLeft=0;spacingRight=0;verticalAlign=middle;html=1;labelBackgroundColor=#ffffff;rounded=0;align=center;exitX=1;exitY=0.7751479289940828;exitDx=0;exitDy=0;exitPerimeter=0;entryX=1;entryY=0.8402366863905325;entryDx=0;entryDy=0;entryPerimeter=0;" parent="1" source="10" target="10" edge="1">
            <mxGeometry relative="1" as="geometry">
              <Array as="points" />
            </mxGeometry>
          </mxCell>
        </UserObject>
        <UserObject label="&lt;div style=&quot;font-size: 1px&quot;&gt;&lt;p style=&quot;text-align:center;margin-left:0;margin-right:0;margin-top:0px;margin-bottom:0px;text-indent:0;vertical-align:middle;direction:ltr;&quot;&gt;&lt;font style=&quot;font-size:12px;font-family:0;color:#000000;direction:ltr;letter-spacing:0px;line-height:120%;opacity:1&quot;&gt;launch game&lt;/font&gt;&lt;/p&gt;&lt;/div&gt;" tags="Background" id="38">
          <mxCell style="vsdxID=37;edgeStyle=none;startArrow=none;endArrow=open;startSize=5;endSize=5;strokeWidth=2;spacingTop=0;spacingBottom=0;spacingLeft=0;spacingRight=0;verticalAlign=middle;html=1;labelBackgroundColor=#ffffff;rounded=0;align=center;exitX=1;exitY=0.037037037037037035;exitDx=0;exitDy=0;exitPerimeter=0;entryX=1;entryY=0.1452991452991453;entryDx=0;entryDy=0;entryPerimeter=0;" parent="1" source="12" target="12" edge="1">
            <mxGeometry relative="1" as="geometry">
              <mxPoint as="offset" />
              <Array as="points">
                <mxPoint x="1185" y="503" />
                <mxPoint x="1185" y="541" />
              </Array>
            </mxGeometry>
          </mxCell>
        </UserObject>
        <UserObject label="&lt;div style=&quot;font-size: 1px&quot;&gt;&lt;p style=&quot;text-align:center;margin-left:0;margin-right:0;margin-top:0px;margin-bottom:0px;text-indent:0;vertical-align:middle;direction:ltr;&quot;&gt;&lt;font style=&quot;font-size:12px;font-family:0;color:#000000;direction:ltr;letter-spacing:0px;line-height:120%;opacity:1&quot;&gt;created&lt;/font&gt;&lt;/p&gt;&lt;/div&gt;" tags="Background" id="39">
          <mxCell style="vsdxID=38;edgeStyle=none;startArrow=none;endArrow=block;startSize=5;endSize=5;strokeWidth=2;spacingTop=0;spacingBottom=0;spacingLeft=0;spacingRight=0;verticalAlign=middle;html=1;labelBackgroundColor=#ffffff;rounded=0;align=center;exitX=1;exitY=0.08085106382978724;exitDx=0;exitDy=0;exitPerimeter=0;entryX=0.03333333333333333;entryY=0.092;entryDx=0;entryDy=0;entryPerimeter=0;" parent="1" source="11" target="23" edge="1">
            <mxGeometry relative="1" as="geometry">
              <mxPoint as="offset" />
              <Array as="points" />
            </mxGeometry>
          </mxCell>
        </UserObject>
        <UserObject label="&lt;div style=&quot;font-size: 1px&quot;&gt;&lt;p style=&quot;text-align:center;margin-left:0;margin-right:0;margin-top:0px;margin-bottom:0px;text-indent:0;vertical-align:middle;direction:ltr;&quot;&gt;&lt;font style=&quot;font-size:12px;font-family:0;color:#000000;direction:ltr;letter-spacing:0px;line-height:120%;opacity:1&quot;&gt;pc.addicecandidate&lt;/font&gt;&lt;/p&gt;&lt;/div&gt;" tags="Background" id="40">
          <mxCell style="vsdxID=39;edgeStyle=none;startArrow=none;endArrow=block;startSize=5;endSize=5;strokeWidth=2;spacingTop=0;spacingBottom=0;spacingLeft=0;spacingRight=0;verticalAlign=middle;html=1;labelBackgroundColor=#ffffff;rounded=0;align=center;exitX=1;exitY=0.811965811965812;exitDx=0;exitDy=0;exitPerimeter=0;entryX=1;entryY=0.9031339031339032;entryDx=0;entryDy=0;entryPerimeter=0;" parent="1" source="12" target="12" edge="1">
            <mxGeometry relative="1" as="geometry">
              <mxPoint y="-1" as="offset" />
              <Array as="points">
                <mxPoint x="1185" y="775" />
                <mxPoint x="1185" y="806.66" />
              </Array>
            </mxGeometry>
          </mxCell>
        </UserObject>
        <UserObject label="&lt;div style=&quot;font-size: 1px&quot;&gt;&lt;p style=&quot;text-align:center;margin-left:0;margin-right:0;margin-top:0px;margin-bottom:0px;text-indent:0;vertical-align:middle;direction:ltr;&quot;&gt;&lt;font style=&quot;font-size:12px;font-family:0;color:#000000;direction:ltr;letter-spacing:0px;line-height:120%;opacity:1&quot;&gt;setremotedescription / create answer&lt;/font&gt;&lt;/p&gt;&lt;/div&gt;" tags="Background" id="41">
          <mxCell style="vsdxID=40;edgeStyle=none;startArrow=none;endArrow=open;startSize=5;endSize=5;strokeWidth=2;spacingTop=0;spacingBottom=0;spacingLeft=0;spacingRight=0;verticalAlign=middle;html=1;labelBackgroundColor=#ffffff;rounded=0;align=center;exitX=0.9333333333333333;exitY=0.15384615384615385;exitDx=0;exitDy=0;exitPerimeter=0;entryX=1;entryY=0.3343195266272189;entryDx=0;entryDy=0;entryPerimeter=0;" parent="1" source="10" target="10" edge="1">
            <mxGeometry relative="1" as="geometry">
              <mxPoint x="-1" y="-1" as="offset" />
              <Array as="points">
                <mxPoint x="443" y="607" />
                <mxPoint x="445" y="668" />
              </Array>
            </mxGeometry>
          </mxCell>
        </UserObject>
        <UserObject label="&lt;div style=&quot;font-size: 1px&quot;&gt;&lt;p style=&quot;text-align:center;margin-left:0;margin-right:0;margin-top:0px;margin-bottom:0px;text-indent:0;vertical-align:middle;direction:ltr;&quot;&gt;&lt;font style=&quot;font-size:12px;font-family:0;color:#000000;direction:ltr;letter-spacing:0px;line-height:120%;opacity:1&quot;&gt;onicecandidate&lt;/font&gt;&lt;/p&gt;&lt;/div&gt;" tags="Background" id="42">
          <mxCell style="vsdxID=41;edgeStyle=none;startArrow=none;endArrow=open;startSize=5;endSize=5;strokeWidth=2;spacingTop=0;spacingBottom=0;spacingLeft=0;spacingRight=0;verticalAlign=middle;html=1;labelBackgroundColor=#ffffff;rounded=0;align=center;exitX=0.03333333333333333;exitY=0.39;exitDx=0;exitDy=0;exitPerimeter=0;entryX=1;entryY=0.5680473372781065;entryDx=0;entryDy=0;entryPerimeter=0;" parent="1" source="26" target="10" edge="1">
            <mxGeometry relative="1" as="geometry">
              <mxPoint as="offset" />
              <Array as="points" />
            </mxGeometry>
          </mxCell>
        </UserObject>
        <UserObject label="&lt;div style=&quot;font-size: 1px&quot;&gt;&lt;p style=&quot;text-align:center;margin-left:0;margin-right:0;margin-top:0px;margin-bottom:0px;text-indent:0;vertical-align:middle;direction:ltr;&quot;&gt;&lt;font style=&quot;font-size:12px;font-family:0;color:#000000;direction:ltr;letter-spacing:0px;line-height:120%;opacity:1&quot;&gt;js call&lt;/font&gt;&lt;/p&gt;&lt;/div&gt;" tags="Background" id="43">
          <mxCell style="vsdxID=42;edgeStyle=none;startArrow=none;endArrow=open;startSize=5;endSize=5;strokeWidth=2;spacingTop=0;spacingBottom=0;spacingLeft=0;spacingRight=0;verticalAlign=middle;html=1;labelBackgroundColor=#ffffff;rounded=0;align=center;exitX=1;exitY=0.25;exitDx=0;exitDy=0;exitPerimeter=0;entryX=1;entryY=0.85;entryDx=0;entryDy=0;entryPerimeter=0;" parent="1" source="30" target="30" edge="1">
            <mxGeometry relative="1" as="geometry">
              <mxPoint as="offset" />
              <Array as="points">
                <mxPoint x="1185" y="1081" />
                <mxPoint x="1185" y="1141" />
              </Array>
            </mxGeometry>
          </mxCell>
        </UserObject>
        <UserObject label="&lt;div style=&quot;font-size: 1px&quot;&gt;&lt;p style=&quot;text-align:center;margin-left:0;margin-right:0;margin-top:0px;margin-bottom:0px;text-indent:0;vertical-align:middle;direction:ltr;&quot;&gt;&lt;font style=&quot;font-size:12px;font-family:0;color:#000000;direction:ltr;letter-spacing:0px;line-height:120%;opacity:1&quot;&gt;player joined&lt;/font&gt;&lt;/p&gt;&lt;/div&gt;" tags="Background" id="44">
          <mxCell style="vsdxID=43;edgeStyle=none;startArrow=none;endArrow=open;startSize=5;endSize=5;strokeWidth=2;spacingTop=0;spacingBottom=0;spacingLeft=0;spacingRight=0;verticalAlign=middle;html=1;labelBackgroundColor=#ffffff;rounded=0;align=center;exitX=1;exitY=0.774468085106383;exitDx=0;exitDy=0;exitPerimeter=0;entryX=0.03333333333333333;entryY=0.039886039886039885;entryDx=0;entryDy=0;entryPerimeter=0;" parent="1" source="11" target="12" edge="1">
            <mxGeometry relative="1" as="geometry">
              <mxPoint as="offset" />
              <Array as="points" />
            </mxGeometry>
          </mxCell>
        </UserObject>
        <mxCell id="45" parent="1" vertex="1">
          <mxGeometry x="380" y="256" as="geometry" />
        </mxCell>
        <UserObject label="&lt;div style=&quot;font-size: 1px&quot;&gt;&lt;p style=&quot;text-align:center;margin-left:0;margin-right:0;margin-top:0px;margin-bottom:0px;text-indent:0;vertical-align:middle;direction:ltr;&quot;&gt;&lt;font style=&quot;font-size:12px;font-family:0;color:#000000;direction:ltr;letter-spacing:0px;line-height:120%;opacity:1&quot;&gt;play game&lt;/font&gt;&lt;/p&gt;&lt;/div&gt;" tags="Background" id="46">
          <mxCell style="vsdxID=44;edgeStyle=none;startArrow=none;endArrow=block;startSize=5;endSize=5;strokeWidth=2;spacingTop=0;spacingBottom=0;spacingLeft=0;spacingRight=0;verticalAlign=middle;html=1;labelBackgroundColor=#ffffff;rounded=0;align=center;exitX=1;exitY=0.5;exitDx=0;exitDy=0;exitPerimeter=0;" parent="1" source="8" target="45" edge="1">
            <mxGeometry relative="1" as="geometry">
              <mxPoint x="-1" as="offset" />
              <Array as="points" />
            </mxGeometry>
          </mxCell>
        </UserObject>
        <UserObject label="&lt;div style=&quot;font-size: 1px&quot;&gt;&lt;p style=&quot;text-align:center;margin-left:0;margin-right:0;margin-top:0px;margin-bottom:0px;text-indent:0;vertical-align:middle;direction:ltr;&quot;&gt;&lt;font style=&quot;font-size:12px;font-family:0;color:#000000;direction:ltr;letter-spacing:0px;line-height:120%;opacity:1&quot;&gt;Get IP&lt;/font&gt;&lt;/p&gt;&lt;/div&gt;" tags="Background" id="47">
          <mxCell style="vsdxID=45;edgeStyle=none;startArrow=none;endArrow=open;startSize=5;endSize=5;strokeWidth=2;spacingTop=0;spacingBottom=0;spacingLeft=0;spacingRight=0;verticalAlign=middle;html=1;labelBackgroundColor=#ffffff;rounded=0;align=center;exitX=0.03333333333333333;exitY=0.792022792022792;exitDx=0;exitDy=0;exitPerimeter=0;entryX=1;entryY=0.16;entryDx=0;entryDy=0;entryPerimeter=0;" parent="1" source="12" target="26" edge="1">
            <mxGeometry relative="1" as="geometry">
              <mxPoint x="-1" y="-1" as="offset" />
              <Array as="points" />
            </mxGeometry>
          </mxCell>
        </UserObject>
        <mxCell id="48" parent="1" vertex="1">
          <mxGeometry x="419" y="579" as="geometry" />
        </mxCell>
        <UserObject label="&lt;div style=&quot;font-size: 1px&quot;&gt;&lt;p style=&quot;text-align:center;margin-left:0;margin-right:0;margin-top:0px;margin-bottom:0px;text-indent:0;vertical-align:middle;direction:ltr;&quot;&gt;&lt;font style=&quot;font-size:12px;font-family:0;color:#000000;direction:ltr;letter-spacing:0px;line-height:120%;opacity:1&quot;&gt;send sdp offer /answer&lt;/font&gt;&lt;/p&gt;&lt;/div&gt;" tags="Background" id="49">
          <mxCell style="vsdxID=46;edgeStyle=none;startArrow=open;endArrow=open;startSize=5;endSize=5;strokeWidth=2;spacingTop=0;spacingBottom=0;spacingLeft=0;spacingRight=0;verticalAlign=middle;html=1;labelBackgroundColor=#ffffff;rounded=0;align=center;exitX=0;exitY=0.5;exitDx=0;exitDy=0;exitPerimeter=0;" parent="1" source="25" target="48" edge="1">
            <mxGeometry relative="1" as="geometry">
              <mxPoint x="-1" y="-1" as="offset" />
              <Array as="points" />
            </mxGeometry>
          </mxCell>
        </UserObject>
        <UserObject label="&lt;div style=&quot;font-size: 1px&quot;&gt;&lt;p style=&quot;text-align:center;margin-left:0;margin-right:0;margin-top:0px;margin-bottom:0px;text-indent:0;vertical-align:middle;direction:ltr;&quot;&gt;&lt;font style=&quot;font-size:12px;font-family:0;color:#000000;direction:ltr;letter-spacing:0px;line-height:120%;opacity:1&quot;&gt;Verification&lt;/font&gt;&lt;/p&gt;&lt;/div&gt;" tags="Background" id="50">
          <mxCell style="vsdxID=47;edgeStyle=none;startArrow=none;endArrow=block;startSize=5;endSize=5;strokeWidth=2;spacingTop=0;spacingBottom=0;spacingLeft=0;spacingRight=0;verticalAlign=middle;html=1;labelBackgroundColor=#ffffff;rounded=0;align=center;exitX=1;exitY=0.18723404255319148;exitDx=0;exitDy=0;exitPerimeter=0;entryX=0.9333333333333333;entryY=0.4553191489361702;entryDx=0;entryDy=0;entryPerimeter=0;" parent="1" source="11" target="11" edge="1">
            <mxGeometry relative="1" as="geometry">
              <mxPoint y="-1" as="offset" />
              <Array as="points">
                <mxPoint x="882" y="237" />
                <mxPoint x="880" y="300.21" />
              </Array>
            </mxGeometry>
          </mxCell>
        </UserObject>
        <UserObject label="&lt;div style=&quot;font-size: 1px&quot;&gt;&lt;p style=&quot;text-align:center;margin-left:0;margin-right:0;margin-top:0px;margin-bottom:0px;text-indent:0;vertical-align:middle;direction:ltr;&quot;&gt;&lt;font style=&quot;font-size:12px;font-family:0;color:#000000;direction:ltr;letter-spacing:0px;line-height:120%;opacity:1&quot;&gt;Websocket init &amp;amp;&amp;amp; join room&lt;/font&gt;&lt;/p&gt;&lt;/div&gt;" tags="Background" id="51">
          <mxCell style="vsdxID=48;edgeStyle=none;startArrow=none;endArrow=block;startSize=5;endSize=5;strokeWidth=2;spacingTop=0;spacingBottom=0;spacingLeft=0;spacingRight=0;verticalAlign=middle;html=1;labelBackgroundColor=#ffffff;rounded=0;align=center;exitX=0.03333333333333333;exitY=0.032;exitDx=0;exitDy=0;exitPerimeter=0;entryX=1;entryY=0.02553191489361702;entryDx=0;entryDy=0;entryPerimeter=0;" parent="1" source="23" target="11" edge="1">
            <mxGeometry relative="1" as="geometry">
              <mxPoint x="-1" as="offset" />
              <Array as="points" />
            </mxGeometry>
          </mxCell>
        </UserObject>
        <UserObject label="&lt;div style=&quot;font-size: 1px&quot;&gt;&lt;p style=&quot;text-align:center;margin-left:0;margin-right:0;margin-top:0px;margin-bottom:0px;text-indent:0;vertical-align:middle;direction:ltr;&quot;&gt;&lt;font style=&quot;font-size:12px;font-family:0;color:#000000;direction:ltr;letter-spacing:0px;line-height:120%;opacity:1&quot;&gt;pc.addicecandidate&lt;/font&gt;&lt;/p&gt;&lt;/div&gt;" tags="Background" id="52">
          <mxCell style="vsdxID=49;edgeStyle=none;startArrow=none;endArrow=block;startSize=5;endSize=5;strokeWidth=2;spacingTop=0;spacingBottom=0;spacingLeft=0;spacingRight=0;verticalAlign=middle;html=1;labelBackgroundColor=#ffffff;rounded=0;align=center;exitX=1;exitY=0.606508875739645;exitDx=0;exitDy=0;exitPerimeter=0;entryX=1;entryY=0.7544378698224852;entryDx=0;entryDy=0;entryPerimeter=0;" parent="1" source="10" target="10" edge="1">
            <mxGeometry relative="1" as="geometry">
              <mxPoint as="offset" />
              <Array as="points">
                <mxPoint x="445" y="760" />
                <mxPoint x="445" y="810.99" />
              </Array>
            </mxGeometry>
          </mxCell>
        </UserObject>
        <UserObject label="&lt;div style=&quot;font-size: 1px&quot;&gt;&lt;p style=&quot;text-align:center;margin-left:0;margin-right:0;margin-top:0px;margin-bottom:0px;text-indent:0;vertical-align:middle;direction:ltr;&quot;&gt;&lt;font style=&quot;font-size:12px;font-family:0;color:#000000;direction:ltr;letter-spacing:0px;line-height:120%;opacity:1&quot;&gt;data channel (SCTP)&lt;/font&gt;&lt;/p&gt;&lt;/div&gt;" tags="Background" id="53">
          <mxCell style="vsdxID=50;edgeStyle=none;startArrow=none;endArrow=open;startSize=5;endSize=5;strokeWidth=2;spacingTop=0;spacingBottom=0;spacingLeft=0;spacingRight=0;verticalAlign=middle;html=1;labelBackgroundColor=#ffffff;rounded=0;align=center;exitX=1;exitY=0.42;exitDx=0;exitDy=0;exitPerimeter=0;entryX=0.03333333333333333;entryY=0.32;entryDx=0;entryDy=0;entryPerimeter=0;" parent="1" source="29" target="30" edge="1">
            <mxGeometry relative="1" as="geometry">
              <mxPoint x="-1" y="-1" as="offset" />
              <Array as="points">
                <mxPoint x="772.5" y="1088" />
                <mxPoint x="772.5" y="1088" />
              </Array>
            </mxGeometry>
          </mxCell>
        </UserObject>
        <UserObject label="&lt;div style=&quot;font-size: 1px&quot;&gt;&lt;p style=&quot;text-align:center;margin-left:0;margin-right:0;margin-top:0px;margin-bottom:0px;text-indent:0;vertical-align:middle;direction:ltr;&quot;&gt;&lt;font style=&quot;font-size:12px;font-family:0;color:#000000;direction:ltr;letter-spacing:0px;line-height:120%;opacity:1&quot;&gt;answer&lt;/font&gt;&lt;/p&gt;&lt;/div&gt;" tags="Background" id="54">
          <mxCell style="vsdxID=51;edgeStyle=none;startArrow=none;endArrow=open;startSize=5;endSize=5;strokeWidth=2;spacingTop=0;spacingBottom=0;spacingLeft=0;spacingRight=0;verticalAlign=middle;html=1;labelBackgroundColor=#ffffff;rounded=0;align=center;exitX=0.03333333333333333;exitY=0.6182336182336182;exitDx=0;exitDy=0;exitPerimeter=0;entryX=1;entryY=0.91;entryDx=0;entryDy=0;entryPerimeter=0;" parent="1" source="12" target="25" edge="1">
            <mxGeometry relative="1" as="geometry">
              <mxPoint y="-1" as="offset" />
              <Array as="points">
                <mxPoint x="989.02" y="707" />
                <mxPoint x="989.02" y="650.65" />
              </Array>
            </mxGeometry>
          </mxCell>
        </UserObject>
        <UserObject label="&lt;div style=&quot;font-size: 1px&quot;&gt;&lt;p style=&quot;text-align:center;margin-left:0;margin-right:0;margin-top:0px;margin-bottom:0px;text-indent:0;vertical-align:middle;direction:ltr;&quot;&gt;&lt;font style=&quot;font-size:12px;font-family:0;color:#000000;direction:ltr;letter-spacing:0px;line-height:120%;opacity:1&quot;&gt;send sdp offer/ answer&lt;/font&gt;&lt;/p&gt;&lt;/div&gt;" tags="Background" id="55">
          <mxCell style="vsdxID=52;edgeStyle=none;startArrow=open;endArrow=open;startSize=5;endSize=5;strokeWidth=2;spacingTop=0;spacingBottom=0;spacingLeft=0;spacingRight=0;verticalAlign=middle;html=1;labelBackgroundColor=#ffffff;rounded=0;align=center;exitX=0;exitY=0.4985754985754986;exitDx=0;exitDy=0;exitPerimeter=0;entryX=1;entryY=0.33;entryDx=0;entryDy=0;entryPerimeter=0;" parent="1" source="12" target="25" edge="1">
            <mxGeometry relative="1" as="geometry">
              <mxPoint as="offset" />
              <Array as="points" />
            </mxGeometry>
          </mxCell>
        </UserObject>
        <UserObject label="&lt;div style=&quot;font-size: 1px&quot;&gt;&lt;p style=&quot;text-align:center;margin-left:0;margin-right:0;margin-top:0px;margin-bottom:0px;text-indent:0;vertical-align:middle;direction:ltr;&quot;&gt;&lt;font style=&quot;font-size:12px;font-family:0;color:#000000;direction:ltr;letter-spacing:0px;line-height:120%;opacity:1&quot;&gt;RTP&lt;/font&gt;&lt;/p&gt;&lt;/div&gt;" tags="Background" id="56">
          <mxCell style="vsdxID=53;edgeStyle=none;startArrow=none;endArrow=open;startSize=5;endSize=5;strokeWidth=2;spacingTop=0;spacingBottom=0;spacingLeft=0;spacingRight=0;verticalAlign=middle;html=1;labelBackgroundColor=#ffffff;rounded=0;align=center;exitX=0.03333333333333333;exitY=0.33;exitDx=0;exitDy=0;exitPerimeter=0;entryX=1;entryY=0.24;entryDx=0;entryDy=0;entryPerimeter=0;" parent="1" source="19" target="20" edge="1">
            <mxGeometry relative="1" as="geometry">
              <mxPoint as="offset" />
              <Array as="points" />
            </mxGeometry>
          </mxCell>
        </UserObject>
        <UserObject label="&lt;div style=&quot;font-size: 1px&quot;&gt;&lt;p style=&quot;text-align:center;margin-left:0;margin-right:0;margin-top:0px;margin-bottom:0px;text-indent:0;vertical-align:middle;direction:ltr;&quot;&gt;&lt;font style=&quot;font-size:12px;font-family:0;color:#000000;direction:ltr;letter-spacing:0px;line-height:120%;opacity:1&quot;&gt;create offer&lt;/font&gt;&lt;/p&gt;&lt;/div&gt;" tags="Background" id="57">
          <mxCell style="vsdxID=54;edgeStyle=none;startArrow=none;endArrow=block;startSize=5;endSize=5;strokeWidth=2;spacingTop=0;spacingBottom=0;spacingLeft=0;spacingRight=0;verticalAlign=middle;html=1;labelBackgroundColor=#ffffff;rounded=0;align=center;exitX=1;exitY=0.358974358974359;exitDx=0;exitDy=0;exitPerimeter=0;entryX=1;entryY=0.45584045584045585;entryDx=0;entryDy=0;entryPerimeter=0;" parent="1" source="12" target="12" edge="1">
            <mxGeometry relative="1" as="geometry">
              <mxPoint as="offset" />
              <Array as="points">
                <mxPoint x="1185" y="616" />
                <mxPoint x="1185" y="650" />
              </Array>
            </mxGeometry>
          </mxCell>
        </UserObject>
        <UserObject label="&lt;div style=&quot;font-size: 1px&quot;&gt;&lt;p style=&quot;text-align:center;margin-left:0;margin-right:0;margin-top:0px;margin-bottom:0px;text-indent:0;vertical-align:middle;direction:ltr;&quot;&gt;&lt;font style=&quot;font-size:12px;font-family:0;color:#000000;direction:ltr;letter-spacing:0px;line-height:120%;opacity:1&quot;&gt;Get IP&lt;/font&gt;&lt;/p&gt;&lt;/div&gt;" tags="Background" id="58">
          <mxCell style="vsdxID=55;edgeStyle=none;startArrow=none;endArrow=open;startSize=5;endSize=5;strokeWidth=2;spacingTop=0;spacingBottom=0;spacingLeft=0;spacingRight=0;verticalAlign=middle;html=1;labelBackgroundColor=#ffffff;rounded=0;align=center;exitX=1;exitY=0.5;exitDx=0;exitDy=0;exitPerimeter=0;entryX=0.03333333333333333;entryY=0.17;entryDx=0;entryDy=0;entryPerimeter=0;" parent="1" source="10" target="26" edge="1">
            <mxGeometry relative="1" as="geometry">
              <mxPoint x="-1" y="-1" as="offset" />
              <Array as="points" />
            </mxGeometry>
          </mxCell>
        </UserObject>
        <UserObject label="&lt;div style=&quot;font-size: 1px&quot;&gt;&lt;p style=&quot;text-align:center;margin-left:0;margin-right:0;margin-top:0px;margin-bottom:0px;text-indent:0;vertical-align:middle;direction:ltr;&quot;&gt;&lt;font style=&quot;font-size:12px;font-family:0;color:#000000;direction:ltr;letter-spacing:0px;line-height:120%;opacity:1&quot;&gt;gamid&lt;/font&gt;&lt;/p&gt;&lt;/div&gt;" tags="Background" id="59">
          <mxCell style="vsdxID=56;edgeStyle=none;startArrow=none;endArrow=block;startSize=5;endSize=5;strokeWidth=2;spacingTop=0;spacingBottom=0;spacingLeft=0;spacingRight=0;verticalAlign=middle;html=1;labelBackgroundColor=#ffffff;rounded=0;align=center;exitX=0.9333333333333333;exitY=0.71;exitDx=0;exitDy=0;exitPerimeter=0;entryX=0.03333333333333333;entryY=0.2297872340425532;entryDx=0;entryDy=0;entryPerimeter=0;" parent="1" source="24" target="11" edge="1">
            <mxGeometry relative="1" as="geometry">
              <mxPoint as="offset" />
              <Array as="points" />
            </mxGeometry>
          </mxCell>
        </UserObject>
        <UserObject label="&lt;div style=&quot;font-size: 1px&quot;&gt;&lt;p style=&quot;text-align:center;margin-left:0;margin-right:0;margin-top:0px;margin-bottom:0px;text-indent:0;vertical-align:middle;direction:ltr;&quot;&gt;&lt;font style=&quot;font-size:12px;font-family:0;color:#000000;direction:ltr;letter-spacing:0px;line-height:120%;opacity:1&quot;&gt;ontrack&lt;/font&gt;&lt;/p&gt;&lt;/div&gt;" tags="Background" id="60">
          <mxCell style="vsdxID=57;edgeStyle=none;startArrow=none;endArrow=open;startSize=5;endSize=5;strokeWidth=2;spacingTop=0;spacingBottom=0;spacingLeft=0;spacingRight=0;verticalAlign=middle;html=1;labelBackgroundColor=#ffffff;rounded=0;align=center;exitX=1;exitY=0.31;exitDx=0;exitDy=0;exitPerimeter=0;entryX=1;entryY=0.85;entryDx=0;entryDy=0;entryPerimeter=0;" parent="1" source="20" target="20" edge="1">
            <mxGeometry relative="1" as="geometry">
              <mxPoint as="offset" />
              <Array as="points">
                <mxPoint x="449" y="958" />
                <mxPoint x="449" y="1012" />
              </Array>
            </mxGeometry>
          </mxCell>
        </UserObject>
        <UserObject label="&lt;div style=&quot;font-size: 1px&quot;&gt;&lt;p style=&quot;text-align:center;margin-left:0;margin-right:0;margin-top:0px;margin-bottom:0px;text-indent:0;vertical-align:middle;direction:ltr;&quot;&gt;&lt;font style=&quot;font-size:12px;font-family:0;color:#000000;direction:ltr;letter-spacing:0px;line-height:120%;opacity:1&quot;&gt;on_icecandidate&lt;/font&gt;&lt;/p&gt;&lt;/div&gt;" tags="Background" id="61">
          <mxCell style="vsdxID=58;edgeStyle=none;startArrow=none;endArrow=open;startSize=5;endSize=5;strokeWidth=2;spacingTop=0;spacingBottom=0;spacingLeft=0;spacingRight=0;verticalAlign=middle;html=1;labelBackgroundColor=#ffffff;rounded=0;align=center;exitX=1;exitY=0.35;exitDx=0;exitDy=0;exitPerimeter=0;entryX=0.03333333333333333;entryY=0.8974358974358975;entryDx=0;entryDy=0;entryPerimeter=0;" parent="1" source="26" target="12" edge="1">
            <mxGeometry relative="1" as="geometry">
              <mxPoint as="offset" />
              <Array as="points" />
            </mxGeometry>
          </mxCell>
        </UserObject>
        <UserObject label="&lt;div style=&quot;font-size: 1px&quot;&gt;&lt;p style=&quot;text-align:center;margin-left:0;margin-right:0;margin-top:0px;margin-bottom:0px;text-indent:0;vertical-align:middle;direction:ltr;&quot;&gt;&lt;font style=&quot;font-size:12px;font-family:0;color:#000000;direction:ltr;letter-spacing:0px;line-height:120%;opacity:1&quot;&gt;pc.addtrack(local stream)&lt;/font&gt;&lt;/p&gt;&lt;/div&gt;" tags="Background" id="62">
          <mxCell style="vsdxID=59;edgeStyle=none;startArrow=none;endArrow=open;startSize=5;endSize=5;strokeWidth=2;spacingTop=0;spacingBottom=0;spacingLeft=0;spacingRight=0;verticalAlign=middle;html=1;labelBackgroundColor=#ffffff;rounded=0;align=center;exitX=1;exitY=0.14;exitDx=0;exitDy=0;exitPerimeter=0;entryX=1;entryY=0.66;entryDx=0;entryDy=0;entryPerimeter=0;" parent="1" source="19" target="19" edge="1">
            <mxGeometry relative="1" as="geometry">
              <mxPoint as="offset" />
              <Array as="points">
                <mxPoint x="1185" y="935" />
                <mxPoint x="1185" y="987" />
              </Array>
            </mxGeometry>
          </mxCell>
        </UserObject>
        <UserObject label="&lt;div style=&quot;font-size: 1px&quot;&gt;&lt;p style=&quot;text-align:center;margin-left:0;margin-right:0;margin-top:0px;margin-bottom:0px;text-indent:0;vertical-align:middle;direction:ltr;&quot;&gt;&lt;font style=&quot;font-size:12px;font-family:0;color:#000000;direction:ltr;letter-spacing:0px;line-height:120%;opacity:1&quot;&gt;websocket init&lt;/font&gt;&lt;/p&gt;&lt;/div&gt;" tags="Background" id="63">
          <mxCell style="vsdxID=60;edgeStyle=none;startArrow=none;endArrow=block;startSize=5;endSize=5;strokeWidth=2;spacingTop=0;spacingBottom=0;spacingLeft=0;spacingRight=0;verticalAlign=middle;html=1;labelBackgroundColor=#ffffff;rounded=0;align=center;exitX=1;exitY=0.5;exitDx=0;exitDy=0;exitPerimeter=0;entryX=0.03333333333333333;entryY=0.16170212765957448;entryDx=0;entryDy=0;entryPerimeter=0;" parent="1" source="24" target="11" edge="1">
            <mxGeometry relative="1" as="geometry">
              <mxPoint as="offset" />
              <Array as="points" />
            </mxGeometry>
          </mxCell>
        </UserObject>
      </root>
    </mxGraphModel>
  </diagram>
</mxfile>
